<?xml version="1.0" standalone="no"?>
<!DOCTYPE svg PUBLIC "-//W3C//DTD SVG 20010904//EN"
 "http://www.w3.org/TR/2001/REC-SVG-20010904/DTD/svg10.dtd">
<svg version="1.0" xmlns="http://www.w3.org/2000/svg"
 width="1024.000000pt" height="1024.000000pt" viewBox="0 0 1024.000000 1024.000000"
 preserveAspectRatio="xMidYMid meet">
<metadata>
Created by potrace 1.14, written by Peter Selinger 2001-2017
</metadata>
<g transform="translate(0.000000,1024.000000) scale(0.100000,-0.100000)"
fill="#000000" stroke="none">
<path d="M5745 10059 c-213 -122 -366 -240 -526 -407 -165 -171 -274 -338
-328 -502 -11 -36 -37 -137 -56 -225 -57 -254 -79 -309 -215 -520 -106 -165
-140 -224 -199 -342 -49 -98 -53 -103 -83 -103 -17 0 -234 -29 -482 -64 -642
-92 -917 -121 -1285 -133 l-204 -6 -26 -31 c-67 -81 -223 -227 -286 -268 -38
-25 -131 -78 -205 -118 -74 -41 -138 -78 -142 -84 -4 -6 -8 -31 -8 -56 0 -43
-10 -139 -79 -820 -38 -368 -51 -569 -51 -778 0 -455 77 -780 243 -1027 99
-147 283 -301 454 -380 43 -20 89 -43 103 -51 119 -73 258 -117 400 -129 151
-12 363 27 497 91 62 29 78 43 121 102 62 86 129 193 216 348 85 151 141 222
211 268 55 37 140 74 149 65 3 -2 12 -76 21 -164 30 -307 83 -618 148 -866
l33 -127 -46 -158 c-26 -88 -65 -214 -87 -282 l-42 -122 192 0 192 -1 40 -82
c190 -392 582 -872 979 -1197 l79 -65 -7 -141 -6 -141 73 -48 c39 -26 118 -83
174 -126 156 -120 244 -174 356 -217 124 -48 359 -106 398 -98 21 4 55 -8 133
-45 l105 -51 -60 -40 c-36 -24 -105 -91 -170 -164 -60 -68 -127 -136 -148
-153 l-38 -30 -49 41 c-98 82 -262 180 -518 309 -449 227 -568 301 -706 439
-108 107 -143 176 -235 465 -84 260 -120 346 -180 430 -52 73 -98 110 -195
160 -137 69 -286 102 -570 125 -306 25 -400 43 -568 112 l-72 30 -246 329
c-135 181 -252 329 -260 329 -8 0 -231 -36 -495 -80 l-480 -80 -77 19 c-174
45 -459 152 -758 286 -152 69 -553 268 -672 335 l-73 41 4 -798 c3 -705 5
-810 21 -903 87 -516 311 -949 672 -1300 350 -340 742 -535 1255 -627 86 -15
308 -17 2608 -20 l2513 -3 -7 47 c-14 95 -111 435 -163 572 -4 11 -1 13 14 7
43 -17 255 -66 344 -80 52 -8 173 -22 268 -31 198 -18 310 -44 358 -80 22 -17
53 -63 91 -138 43 -85 72 -127 119 -174 34 -35 70 -63 81 -63 30 0 202 48 308
86 132 48 327 145 448 223 54 35 96 65 95 67 -2 1 -24 -2 -48 -7 -120 -27
-263 -41 -570 -54 -386 -17 -365 -16 -359 -11 2 3 101 28 218 55 587 139 991
287 1139 416 53 47 66 71 35 61 -53 -16 -143 -33 -143 -27 0 4 79 60 175 124
195 131 194 130 281 312 50 106 128 304 122 310 -2 2 -52 -21 -113 -51 -128
-62 -331 -131 -495 -168 -164 -36 -315 -59 -730 -111 -201 -25 -376 -49 -389
-53 -23 -8 -20 -10 27 -30 82 -35 224 -46 462 -35 113 6 206 9 208 8 2 -2 -57
-26 -130 -55 -526 -204 -1081 -256 -1553 -145 -171 41 -397 124 -611 225 -113
53 -256 143 -243 153 2 2 74 -2 159 -9 215 -18 203 -20 147 30 -63 57 -193
124 -447 231 -113 47 -234 102 -270 122 -458 249 -1012 838 -1258 1335 -210
426 -343 981 -394 1653 -16 212 -16 885 0 1095 49 632 140 1142 276 1549 107
317 188 463 462 831 167 224 314 445 314 474 0 3 -59 -23 -131 -59 l-130 -66
7 38 c21 125 98 299 185 423 217 308 649 590 1123 734 76 24 246 65 268 66 43
1 -167 -183 -297 -261 -256 -153 -534 -381 -664 -544 -55 -69 -100 -150 -89
-161 4 -3 95 31 204 75 108 45 202 81 207 81 6 0 -10 -14 -34 -32 -24 -17 -50
-40 -57 -50 -7 -9 -34 -32 -60 -50 -61 -41 -217 -193 -296 -288 -153 -183
-318 -439 -445 -688 -70 -139 -166 -361 -158 -368 2 -2 122 146 268 329 145
182 293 361 329 397 71 70 176 147 186 137 18 -18 -30 -106 -203 -372 -455
-703 -735 -1330 -813 -1827 -5 -36 -15 -176 -20 -310 -5 -133 -17 -367 -26
-518 -17 -293 -15 -609 5 -672 14 -43 46 -86 57 -75 4 4 16 119 26 255 33 461
75 730 149 957 36 113 125 313 134 304 2 -3 -7 -60 -20 -127 -44 -219 -49
-434 -13 -522 l15 -35 7 45 c40 253 116 536 203 755 97 245 140 320 308 534
122 156 167 223 221 326 37 72 142 272 234 445 92 173 193 367 225 430 53 107
65 123 181 241 68 69 124 131 124 136 0 6 50 44 112 83 544 352 1235 612 2028
764 194 38 511 86 561 86 16 0 29 4 29 9 0 10 -89 88 -172 150 l-57 43 -399
-8 c-389 -7 -452 -4 -452 17 0 22 227 92 433 134 66 13 121 26 123 28 6 6
-149 75 -256 114 -225 82 -454 122 -738 130 l-203 6 27 -74 c14 -41 36 -95 49
-121 l23 -46 -112 -124 c-62 -67 -172 -181 -245 -251 -124 -119 -139 -131
-234 -174 -143 -66 -310 -153 -460 -240 -165 -96 -270 -145 -299 -141 -51 7
-30 126 43 238 46 72 103 128 221 222 149 118 220 213 274 369 35 101 37 193
5 277 l-23 62 -542 0 -542 0 -89 -51z"/>
<path d="M9240 9173 c-874 -60 -1607 -386 -2282 -1014 -176 -164 -437 -466
-598 -693 -101 -142 -186 -250 -276 -350 -343 -382 -386 -462 -507 -956 -242
-979 -303 -1674 -181 -2055 23 -69 71 -159 101 -187 l26 -23 -7 65 c-20 206
-28 430 -23 665 11 459 51 789 137 1141 52 210 97 341 170 489 58 117 146 249
160 240 4 -2 10 -60 14 -128 3 -69 13 -146 21 -172 14 -47 58 -105 80 -105 22
0 131 124 250 284 122 164 231 286 253 286 22 0 40 -61 47 -161 9 -120 13
-129 53 -100 62 44 123 127 181 246 32 66 85 174 116 239 54 111 67 128 169
234 351 363 961 729 1431 861 175 49 277 64 425 65 140 1 246 -16 334 -53 l40
-18 -42 -30 c-23 -17 -107 -57 -187 -88 -80 -32 -148 -61 -150 -65 -2 -4 53
-10 123 -13 142 -7 206 -20 482 -103 143 -43 474 -124 507 -124 12 0 -6 509
-21 605 -22 139 -37 204 -50 214 -6 5 -67 26 -136 46 -152 46 -276 92 -361
135 -76 39 -74 40 85 65 69 11 147 16 222 13 l115 -3 -6 25 c-20 81 -205 420
-271 500 l-26 30 -186 -2 c-103 -1 -207 -3 -232 -5z m-1270 -707 c0 -2 -26
-19 -57 -36 -32 -18 -155 -99 -273 -180 -311 -214 -437 -286 -583 -336 -80
-27 -216 -49 -252 -40 -24 6 -22 9 61 119 48 61 109 136 138 165 158 165 403
268 712 301 85 9 254 14 254 7z"/>
<path d="M9075 7594 c-206 -29 -354 -69 -530 -140 -559 -229 -1102 -736 -1375
-1287 -116 -233 -168 -417 -176 -622 l-5 -120 61 115 c239 446 478 770 791
1075 162 157 262 239 437 355 277 185 593 317 847 354 168 25 677 55 933 56
l52 0 0 34 0 34 -112 31 c-314 86 -468 111 -708 116 -102 2 -198 1 -215 -1z"/>
<path d="M9685 7145 c-147 -29 -317 -78 -333 -98 -9 -10 34 -13 231 -13 251
-1 264 -3 505 -61 22 -5 22 -4 22 85 0 57 -4 93 -11 98 -7 4 -73 8 -148 10
-114 3 -157 0 -266 -21z"/>
<path d="M8594 5199 c-60 -17 -127 -71 -153 -124 -33 -64 -39 -168 -14 -240
17 -46 23 -53 88 -87 54 -29 81 -37 120 -37 75 0 136 27 157 69 20 39 23 105
8 144 -9 23 -7 26 14 26 13 0 52 -9 87 -20 116 -36 232 -143 324 -298 l43 -73
8 33 c4 18 7 68 6 111 0 106 -35 178 -133 282 -138 145 -301 226 -452 224 -40
0 -86 -5 -103 -10z"/>
<path d="M6080 4284 c0 -264 56 -507 172 -739 270 -544 832 -904 1573 -1007
103 -14 458 -17 586 -5 86 9 87 9 91 38 5 33 3 34 -147 44 -137 9 -305 33
-465 65 -648 130 -1089 431 -1435 980 -85 135 -235 436 -305 612 -30 76 -58
138 -62 138 -5 0 -8 -57 -8 -126z"/>
</g>
</svg>
